<?xml version="1.0" encoding="utf-8"?><svg version="1.1" id="Layer_1" xmlns="http://www.w3.org/2000/svg" xmlns:xlink="http://www.w3.org/1999/xlink" x="0px" y="0px" viewBox="0 0 115.28 122.88" style="enable-background:new 0 0 115.28 122.88" xml:space="preserve"><style type="text/css">.st0{fill-rule:evenodd;clip-rule:evenodd;}</style><g><path class="st0" d="M21.69,57h68.56V37.34H69.59c-2.17,0-5.19-1.17-6.62-2.6c-1.43-1.43-2.3-4.01-2.3-6.17V7.64l0,0H8.15 c-0.18,0-0.32,0.09-0.41,0.18C7.59,7.92,7.55,8.05,7.55,8.24v106.45c0,0.14,0.09,0.32,0.18,0.41c0.09,0.14,0.28,0.18,0.41,0.18 c22.78,0,58.09,0,81.51,0c0.18,0,0.17-0.09,0.27-0.18c0.14-0.09,0.33-0.28,0.33-0.41v-11.16H21.69c-4.14,0-7.56-3.4-7.56-7.56 V64.55C14.13,60.4,17.53,57,21.69,57L21.69,57z M46.23,82.33l6.26,1.89c-0.42,1.75-1.08,3.22-1.99,4.39 c-0.9,1.18-2.02,2.06-3.37,2.66c-1.34,0.6-3.04,0.9-5.11,0.9c-2.52,0-4.57-0.37-6.16-1.09c-1.59-0.73-2.96-2.02-4.12-3.85 S30,83.04,30,80.18c0-3.82,1.02-6.75,3.05-8.81c2.04-2.05,4.91-3.08,8.64-3.08c2.91,0,5.2,0.59,6.87,1.76 c1.66,1.18,2.9,2.98,3.71,5.43l-6.29,1.39c-0.22-0.7-0.45-1.21-0.69-1.53c-0.4-0.54-0.89-0.96-1.47-1.25 c-0.58-0.3-1.23-0.44-1.94-0.44c-1.62,0-2.87,0.65-3.73,1.95c-0.65,0.96-0.98,2.48-0.98,4.54c0,2.56,0.39,4.31,1.17,5.26 c0.78,0.95,1.87,1.42,3.28,1.42c1.37,0,2.4-0.38,3.1-1.15C45.4,84.9,45.91,83.79,46.23,82.33L46.23,82.33z M69.67,87.98h-8.09 l-1.16,3.81h-7.29l8.7-23.1h7.81l8.66,23.1h-7.47L69.67,87.98L69.67,87.98z M68.15,82.98l-2.52-8.3l-2.53,8.3H68.15L68.15,82.98z M80.17,68.68h10.61c2.09,0,3.78,0.28,5.07,0.85c1.29,0.57,2.35,1.38,3.19,2.44c0.84,1.06,1.45,2.3,1.82,3.71 c0.38,1.41,0.57,2.9,0.57,4.47c0,2.47-0.28,4.38-0.84,5.74c-0.56,1.36-1.34,2.5-2.34,3.42c-1,0.92-2.07,1.53-3.22,1.84 c-1.57,0.42-2.98,0.63-4.25,0.63H80.17V68.68L80.17,68.68z M87.3,73.91v12.62h1.75c1.49,0,2.56-0.17,3.19-0.49 c0.63-0.33,1.12-0.91,1.48-1.73c0.36-0.83,0.54-2.16,0.54-4.01c0-2.45-0.4-4.12-1.2-5.02c-0.8-0.9-2.13-1.36-3.98-1.36H87.3 L87.3,73.91z M97.79,57h9.93c4.16,0,7.56,3.41,7.56,7.56v31.42c0,4.15-3.41,7.56-7.56,7.56h-9.93v13.55c0,1.61-0.65,3.04-1.7,4.1 c-1.06,1.06-2.49,1.7-4.1,1.7c-29.44,0-56.59,0-86.18,0c-1.61,0-3.04-0.64-4.1-1.7c-1.06-1.06-1.7-2.49-1.7-4.1V5.85 c0-1.61,0.65-3.04,1.7-4.1c1.06-1.06,2.53-1.7,4.1-1.7h58.72C64.66,0,64.8,0,64.94,0c0.64,0,1.29,0.28,1.75,0.69h0.09 c0.09,0.05,0.14,0.09,0.23,0.18l29.99,30.36c0.51,0.51,0.88,1.2,0.88,1.98c0,0.23-0.05,0.41-0.09,0.65V57L97.79,57z M67.52,27.97 V8.94l21.43,21.7H70.19c-0.74,0-1.38-0.32-1.89-0.78C67.84,29.4,67.52,28.71,67.52,27.97L67.52,27.97z"/></g></svg>